<svg width="647" height="226" viewBox="0 0 647 226" fill="none" xmlns="http://www.w3.org/2000/svg">
<path fill-rule="evenodd" clip-rule="evenodd" d="M0.370117 12.0001H36.7801C45.2135 12.0001 52.6934 13.5767 59.2201 16.7301C65.7468 19.8834 70.8068 24.3567 74.4001 30.1501C77.9935 35.9434 79.7901 42.7267 79.7901 50.5001C79.7901 58.2734 77.9935 65.0567 74.4001 70.8501C70.8068 76.6434 65.7468 81.1167 59.2201 84.2701C52.6934 87.4234 45.2135 89.0001 36.7801 89.0001H0.370117V12.0001ZM35.9001 71.6201C42.5002 71.6201 47.7984 69.7501 51.7951 66.0101C55.7918 62.27 57.7901 57.1001 57.7901 50.5001C57.7901 43.9 55.7918 38.7301 51.7951 34.9901C47.7984 31.25 42.5002 29.3801 35.9001 29.3801H22.1501V71.6201H35.9001ZM90.2401 29.3801H111.14V89.0001H90.2401V29.3801ZM100.69 22.7801C96.8768 22.7801 93.7968 21.7167 91.4501 19.5901C89.1034 17.4634 87.9301 14.8234 87.9301 11.6701C87.9301 8.51671 89.1034 5.87674 91.4501 3.75006C93.7968 1.62338 96.8768 0.560059 100.69 0.560059C104.503 0.560059 107.583 1.56838 109.93 3.58506C112.277 5.60174 113.45 8.18671 113.45 11.3401C113.45 14.6401 112.277 17.3717 109.93 19.5351C107.583 21.6984 104.503 22.7801 100.69 22.7801ZM188.8 29.3801V78.1101C188.8 89.1834 185.793 97.4884 179.78 103.025C173.767 108.562 165.114 111.33 153.82 111.33C147.953 111.33 142.453 110.67 137.32 109.35C132.187 108.03 127.823 106.087 124.23 103.52L131.82 88.8901C134.24 90.8701 137.302 92.4284 141.005 93.5651C144.708 94.7017 148.357 95.2701 151.95 95.2701C157.45 95.2701 161.483 94.0601 164.05 91.6401C166.617 89.22 167.9 85.6267 167.9 80.8601V78.8801C163.867 83.5734 157.963 85.9201 150.19 85.9201C144.91 85.9201 140.033 84.7284 135.56 82.3451C131.087 79.9617 127.53 76.5884 124.89 72.2251C122.25 67.8617 120.93 62.8201 120.93 57.1001C120.93 51.4534 122.25 46.4484 124.89 42.0851C127.53 37.7217 131.087 34.3484 135.56 31.9651C140.033 29.5817 144.91 28.3901 150.19 28.3901C158.697 28.3901 164.93 31.14 168.89 36.6401V29.3801H188.8ZM155.14 69.3101C158.88 69.3101 161.978 68.1734 164.435 65.9001C166.892 63.6267 168.12 60.6934 168.12 57.1001C168.12 53.5067 166.91 50.5917 164.49 48.3551C162.07 46.1184 158.953 45.0001 155.14 45.0001C151.327 45.0001 148.192 46.1184 145.735 48.3551C143.278 50.5917 142.05 53.5067 142.05 57.1001C142.05 60.6934 143.297 63.6267 145.79 65.9001C148.283 68.1734 151.4 69.3101 155.14 69.3101ZM202.22 29.3801H223.12V89.0001H202.22V29.3801ZM212.67 22.7801C208.857 22.7801 205.777 21.7167 203.43 19.5901C201.083 17.4634 199.91 14.8234 199.91 11.6701C199.91 8.51671 201.083 5.87674 203.43 3.75006C205.777 1.62338 208.857 0.560059 212.67 0.560059C216.483 0.560059 219.563 1.56838 221.91 3.58506C224.257 5.60174 225.43 8.18671 225.43 11.3401C225.43 14.6401 224.257 17.3717 221.91 19.5351C219.563 21.6984 216.483 22.7801 212.67 22.7801ZM277.79 86.5801C276.03 87.6801 273.885 88.5234 271.355 89.1101C268.825 89.6967 266.13 89.9901 263.27 89.9901C255.497 89.9901 249.52 88.0834 245.34 84.2701C241.16 80.4567 239.07 74.7734 239.07 67.2201V47.2001H230.38V31.5801H239.07V16.0701H259.97V31.5801H273.61V47.2001H259.97V67.0001C259.97 69.1267 260.538 70.7951 261.675 72.0051C262.812 73.2151 264.333 73.8201 266.24 73.8201C268.66 73.8201 270.787 73.1967 272.62 71.9501L277.79 86.5801ZM311.23 28.3901C321.13 28.3901 328.683 30.645 333.89 35.1551C339.097 39.6651 341.7 46.5767 341.7 55.8901V89.0001H322.23V81.3001C319.223 87.0934 313.357 89.9901 304.63 89.9901C300.01 89.9901 296.013 89.1834 292.64 87.5701C289.267 85.9567 286.718 83.7751 284.995 81.0251C283.272 78.275 282.41 75.1401 282.41 71.6201C282.41 65.9734 284.573 61.5917 288.9 58.4751C293.227 55.3584 299.9 53.8001 308.92 53.8001H320.8C320.433 47.4934 316.217 44.3401 308.15 44.3401C305.29 44.3401 302.393 44.7984 299.46 45.7151C296.527 46.6317 294.033 47.8967 291.98 49.5101L284.94 35.3201C288.24 33.12 292.255 31.4151 296.985 30.2051C301.715 28.9951 306.463 28.3901 311.23 28.3901ZM310.46 76.7901C312.88 76.7901 315.007 76.2034 316.84 75.0301C318.673 73.8567 319.993 72.1334 320.8 69.8601V64.6901H311.78C305.693 64.6901 302.65 66.7067 302.65 70.7401C302.65 72.5734 303.347 74.04 304.74 75.1401C306.133 76.2401 308.04 76.7901 310.46 76.7901ZM354.9 7.38006H375.8V89.0001H354.9V7.38006ZM443.01 89.9901C438.023 89.9901 433.11 89.4217 428.27 88.2851C423.43 87.1484 419.543 85.6634 416.61 83.8301L422.88 69.5301C425.593 71.2167 428.82 72.5551 432.56 73.5451C436.3 74.5351 440.003 75.0301 443.67 75.0301C447.043 75.0301 449.445 74.6817 450.875 73.9851C452.305 73.2884 453.02 72.2801 453.02 70.9601C453.02 69.6401 452.158 68.7051 450.435 68.1551C448.712 67.6051 445.98 67.0734 442.24 66.5601C437.473 65.9734 433.422 65.2034 430.085 64.2501C426.748 63.2967 423.87 61.5367 421.45 58.9701C419.03 56.4034 417.82 52.8101 417.82 48.1901C417.82 44.3767 418.957 40.9851 421.23 38.0151C423.503 35.045 426.822 32.6984 431.185 30.9751C435.548 29.2517 440.773 28.3901 446.86 28.3901C451.187 28.3901 455.477 28.8301 459.73 29.7101C463.983 30.5901 467.54 31.8367 470.4 33.4501L464.13 47.6401C458.85 44.7067 453.13 43.2401 446.97 43.2401C443.67 43.2401 441.25 43.6251 439.71 44.3951C438.17 45.1651 437.4 46.1734 437.4 47.4201C437.4 48.8134 438.243 49.7851 439.93 50.3351C441.617 50.8851 444.403 51.4534 448.29 52.0401C453.203 52.7734 457.273 53.6167 460.5 54.5701C463.727 55.5234 466.532 57.265 468.915 59.7951C471.298 62.3251 472.49 65.8634 472.49 70.4101C472.49 74.1501 471.353 77.505 469.08 80.4751C466.807 83.4451 463.452 85.7734 459.015 87.4601C454.578 89.1467 449.243 89.9901 443.01 89.9901ZM508.57 68.1001L502.41 74.3701V89.0001H481.51V7.38006H502.41V50.1701L523.75 29.3801H548.5L523.75 54.9001L550.59 89.0001H525.29L508.57 68.1001ZM556.75 29.3801H577.65V89.0001H556.75V29.3801ZM567.2 22.7801C563.387 22.7801 560.307 21.7167 557.96 19.5901C555.613 17.4634 554.44 14.8234 554.44 11.6701C554.44 8.51671 555.613 5.87674 557.96 3.75006C560.307 1.62338 563.387 0.560059 567.2 0.560059C571.013 0.560059 574.093 1.56838 576.44 3.58506C578.787 5.60174 579.96 8.18671 579.96 11.3401C579.96 14.6401 578.787 17.3717 576.44 19.5351C574.093 21.6984 571.013 22.7801 567.2 22.7801ZM591.18 7.38006H612.08V89.0001H591.18V7.38006ZM625.61 7.38006H646.51V89.0001H625.61V7.38006Z" fill="white"/>
<path fill-rule="evenodd" clip-rule="evenodd" d="M29.7702 142.39C39.6702 142.39 47.2235 144.645 52.4302 149.155C57.6369 153.665 60.2402 160.577 60.2402 169.89V203H40.7702V195.3C37.7635 201.093 31.8969 203.99 23.1702 203.99C18.5502 203.99 14.5535 203.183 11.1802 201.57C7.80684 199.957 5.25854 197.775 3.5352 195.025C1.81185 192.275 0.950195 189.14 0.950195 185.62C0.950195 179.973 3.11351 175.592 7.4402 172.475C11.7669 169.358 18.4402 167.8 27.4602 167.8H39.3402C38.9735 161.493 34.7569 158.34 26.6902 158.34C23.8302 158.34 20.9335 158.798 18.0002 159.715C15.0668 160.632 12.5735 161.897 10.5202 163.51L3.4802 149.32C6.78021 147.12 10.7952 145.415 15.5252 144.205C20.2552 142.995 25.0035 142.39 29.7702 142.39ZM29.0002 190.79C31.4202 190.79 33.5469 190.203 35.3802 189.03C37.2135 187.857 38.5335 186.133 39.3402 183.86V178.69H30.3202C24.2335 178.69 21.1902 180.707 21.1902 184.74C21.1902 186.573 21.8869 188.04 23.2802 189.14C24.6735 190.24 26.5802 190.79 29.0002 190.79ZM104.79 203.99C98.1902 203.99 92.2869 202.67 87.0802 200.03C81.8735 197.39 77.8219 193.723 74.9252 189.03C72.0285 184.337 70.5802 179.02 70.5802 173.08C70.5802 167.14 72.0285 161.842 74.9252 157.185C77.8219 152.528 81.8735 148.898 87.0802 146.295C92.2869 143.692 98.1902 142.39 104.79 142.39C111.537 142.39 117.367 143.838 122.28 146.735C127.194 149.632 130.677 153.647 132.73 158.78L116.56 167.03C113.847 161.677 109.887 159 104.68 159C100.94 159 97.8419 160.247 95.3852 162.74C92.9285 165.233 91.7002 168.68 91.7002 173.08C91.7002 177.553 92.9285 181.055 95.3852 183.585C97.8419 186.115 100.94 187.38 104.68 187.38C109.887 187.38 113.847 184.703 116.56 179.35L132.73 187.6C130.677 192.733 127.194 196.748 122.28 199.645C117.367 202.542 111.537 203.99 104.79 203.99ZM166.06 142.39C175.96 142.39 183.513 144.645 188.72 149.155C193.927 153.665 196.53 160.577 196.53 169.89V203H177.06V195.3C174.054 201.093 168.187 203.99 159.46 203.99C154.84 203.99 150.844 203.183 147.47 201.57C144.097 199.957 141.549 197.775 139.825 195.025C138.102 192.275 137.24 189.14 137.24 185.62C137.24 179.973 139.404 175.592 143.73 172.475C148.057 169.358 154.73 167.8 163.75 167.8H175.63C175.264 161.493 171.047 158.34 162.98 158.34C160.12 158.34 157.224 158.798 154.29 159.715C151.357 160.632 148.864 161.897 146.81 163.51L139.77 149.32C143.07 147.12 147.085 145.415 151.815 144.205C156.545 142.995 161.294 142.39 166.06 142.39ZM165.29 190.79C167.71 190.79 169.837 190.203 171.67 189.03C173.504 187.857 174.824 186.133 175.63 183.86V178.69H166.61C160.523 178.69 157.48 180.707 157.48 184.74C157.48 186.573 158.177 188.04 159.57 189.14C160.964 190.24 162.87 190.79 165.29 190.79ZM273.97 121.38V203H254.06V197.06C250.174 201.68 244.344 203.99 236.57 203.99C231.144 203.99 226.194 202.725 221.72 200.195C217.247 197.665 213.709 194.053 211.105 189.36C208.502 184.667 207.2 179.24 207.2 173.08C207.2 166.92 208.502 161.512 211.105 156.855C213.709 152.198 217.247 148.623 221.72 146.13C226.194 143.637 231.144 142.39 236.57 142.39C243.684 142.39 249.184 144.443 253.07 148.55V121.38H273.97ZM240.97 187.38C244.564 187.38 247.534 186.115 249.88 183.585C252.227 181.055 253.4 177.553 253.4 173.08C253.4 168.68 252.245 165.233 249.935 162.74C247.625 160.247 244.637 159 240.97 159C237.304 159 234.297 160.247 231.95 162.74C229.604 165.233 228.43 168.68 228.43 173.08C228.43 177.553 229.604 181.055 231.95 183.585C234.297 186.115 237.304 187.38 240.97 187.38ZM348.33 173.3C348.33 173.447 348.22 175.17 348 178.47H304.66C305.54 181.55 307.245 183.915 309.775 185.565C312.305 187.215 315.477 188.04 319.29 188.04C322.15 188.04 324.625 187.637 326.715 186.83C328.805 186.023 330.914 184.703 333.04 182.87L344.04 194.31C338.247 200.763 329.777 203.99 318.63 203.99C311.664 203.99 305.54 202.67 300.26 200.03C294.98 197.39 290.892 193.723 287.995 189.03C285.099 184.337 283.65 179.02 283.65 173.08C283.65 167.213 285.062 161.952 287.885 157.295C290.709 152.638 294.614 148.99 299.6 146.35C304.587 143.71 310.197 142.39 316.43 142.39C322.37 142.39 327.76 143.618 332.6 146.075C337.44 148.532 341.272 152.088 344.095 156.745C346.919 161.402 348.33 166.92 348.33 173.3ZM316.54 157.24C313.314 157.24 310.619 158.157 308.455 159.99C306.292 161.823 304.917 164.317 304.33 167.47H328.75C328.164 164.317 326.789 161.823 324.625 159.99C322.462 158.157 319.767 157.24 316.54 157.24ZM435.67 142.39C443.004 142.39 448.852 144.59 453.215 148.99C457.579 153.39 459.76 160.027 459.76 168.9V203H438.86V172.31C438.86 168.13 438.072 165.05 436.495 163.07C434.919 161.09 432.7 160.1 429.84 160.1C426.687 160.1 424.157 161.2 422.25 163.4C420.344 165.6 419.39 168.937 419.39 173.41V203H398.49V172.31C398.49 164.17 395.484 160.1 389.47 160.1C386.243 160.1 383.677 161.2 381.77 163.4C379.864 165.6 378.91 168.937 378.91 173.41V203H358.01V143.38H377.92V149.65C380.12 147.23 382.742 145.415 385.785 144.205C388.829 142.995 392.147 142.39 395.74 142.39C399.92 142.39 403.66 143.16 406.96 144.7C410.26 146.24 412.937 148.587 414.99 151.74C417.337 148.733 420.307 146.423 423.9 144.81C427.494 143.197 431.417 142.39 435.67 142.39ZM534.67 143.38L508.93 205.42C505.923 212.753 502.257 217.905 497.93 220.875C493.603 223.845 488.324 225.33 482.09 225.33C478.937 225.33 475.765 224.835 472.575 223.845C469.385 222.855 466.8 221.553 464.82 219.94L472.08 205.31C473.254 206.41 474.665 207.272 476.315 207.895C477.965 208.518 479.634 208.83 481.32 208.83C483.3 208.83 484.932 208.427 486.215 207.62C487.499 206.813 488.58 205.53 489.46 203.77L463.94 143.38H485.39L500.02 179.79L514.76 143.38H534.67Z" fill="white"/>
<path fill-rule="evenodd" clip-rule="evenodd" d="M100.5 23C107.956 23 114 17.8513 114 11.5C114 5.14873 107.956 0 100.5 0C93.0442 0 87 5.14873 87 11.5C87 17.8513 93.0442 23 100.5 23Z" fill="#9D46F8"/>
<path fill-rule="evenodd" clip-rule="evenodd" d="M212 23C219.732 23 226 17.8513 226 11.5C226 5.14873 219.732 0 212 0C204.268 0 198 5.14873 198 11.5C198 17.8513 204.268 23 212 23Z" fill="#481AE7"/>
<path fill-rule="evenodd" clip-rule="evenodd" d="M567 23C574.732 23 581 17.8513 581 11.5C581 5.14873 574.732 0 567 0C559.268 0 553 5.14873 553 11.5C553 17.8513 559.268 23 567 23Z" fill="#00D2E5"/>
</svg>
