<svg width="111" height="23" viewBox="0 0 111 23" fill="none" xmlns="http://www.w3.org/2000/svg">
<path fill-rule="evenodd" clip-rule="evenodd" d="M12.4672 16.0847C12.4672 13.3662 11.6293 12.6866 8.74714 12.654H4.99358V19.127H8.88128C11.663 19.127 12.4672 18.5768 12.4672 16.0847ZM8.44559 3.7218H4.99358V9.38544H8.71365C11.1936 9.38544 11.9646 8.80285 11.9646 6.50502C11.9646 4.23952 11.1267 3.7218 8.44559 3.7218ZM17.5951 17.0233C17.5951 21.6189 15.2825 22.8488 9.75272 22.8488C5.32845 22.8488 2.91566 22.8164 0 22.5899V0.258858C2.61367 0.0323302 4.79255 0 8.68024 0C14.7129 0 16.8578 1.22985 16.8578 5.82551C16.8578 9.02945 15.6847 10.68 12.8025 10.9389V11.0684C16.3552 11.3596 17.5951 13.4632 17.5951 17.0233Z" fill="white"/>
<path fill-rule="evenodd" clip-rule="evenodd" d="M20.5581 22.849H25.6524V0.000244141H20.5581V22.849Z" fill="white"/>
<path fill-rule="evenodd" clip-rule="evenodd" d="M47.5508 4.01307H40.6468V22.8488H35.519V4.01307H28.6152V0H47.5508V4.01307Z" fill="white"/>
<path fill-rule="evenodd" clip-rule="evenodd" d="M55.6075 17.089C55.6075 18.2542 56.1101 18.7396 57.4172 18.7396H65.3602L65.5948 22.4938C62.5115 22.8173 59.093 22.8496 55.8086 22.8496C52.0885 22.8496 50.5132 20.8432 50.5132 18.0923V0H55.6075V17.089Z" fill="white"/>
<path fill-rule="evenodd" clip-rule="evenodd" d="M82.2992 12.9132C82.2992 12.9132 79.9864 4.40146 79.8859 3.72188H78.9809L76.5346 12.9132H82.2992ZM83.4051 16.7321H75.4621L73.7863 22.849H68.5581L75.2273 1.29451C75.4286 0.485604 76.1659 0 77.004 0H81.8298C82.7012 0 83.4051 0.485604 83.606 1.29451L90.2755 22.849H85.0807L83.4051 16.7321Z" fill="white"/>
<path fill-rule="evenodd" clip-rule="evenodd" d="M105.706 16.0848C105.706 13.3663 104.868 12.6867 101.985 12.6541H98.2319V19.1271H102.12C104.901 19.1271 105.706 18.5768 105.706 16.0848ZM101.684 3.72188H98.2319V9.38552H101.952C104.432 9.38552 105.203 8.80293 105.203 6.5051C105.203 4.23959 104.365 3.72188 101.684 3.72188ZM110.833 17.0233C110.833 21.6189 108.521 22.8488 102.991 22.8488C98.5667 22.8488 96.1539 22.8164 93.2383 22.5899V0.258858C95.8519 0.0323302 98.0308 0 101.919 0C107.951 0 110.096 1.22985 110.096 5.82551C110.096 9.02945 108.923 10.68 106.041 10.9389V11.0684C109.593 11.3596 110.833 13.4632 110.833 17.0233Z" fill="white"/>
</svg>
